<svg id="Capa_1" data-name="Capa 1" xmlns="http://www.w3.org/2000/svg" xmlns:xlink="http://www.w3.org/1999/xlink" viewBox="0 0 149 149"><defs><style>.cls-1,.cls-4{fill:none;}.cls-2{clip-path:url(#clip-path);}.cls-3{fill:#fffbda;}.cls-4{stroke:#aa2d00;stroke-miterlimit:10;stroke-width:5px;}.cls-5{fill:#ffe918;}.cls-6{fill:#fff274;}</style><clipPath id="clip-path" transform="translate(-32 -34)"><rect class="cls-1" x="32" y="34" width="149" height="149"/></clipPath></defs><g id="btn-play"><g class="cls-2"><g class="cls-2"><path class="cls-3" d="M106.5,36.5h0a72,72,0,1,1-72,72,72,72,0,0,1,72-72" transform="translate(-32 -34)"/><path class="cls-4" d="M106.5,36.5h0a72,72,0,1,1-72,72A72,72,0,0,1,106.5,36.5Z" transform="translate(-32 -34)"/><path class="cls-5" d="M86.67,147.35,145.61,112a2.66,2.66,0,0,0,1.33-2.28c-16.46,0-47.42-.37-63.88-.37v36.11a2.36,2.36,0,0,0,3.61,1.89" transform="translate(-32 -34)"/><path class="cls-6" d="M83.06,73.27v36.08c16.46,0,47.42.37,63.88.37a2.69,2.69,0,0,0-1.32-2.29l-58.93-36a2.36,2.36,0,0,0-3.63,1.87" transform="translate(-32 -34)"/></g></g></g></svg>